<svg width="187" height="16" viewBox="0 0 187 16" fill="none" xmlns="http://www.w3.org/2000/svg">
<path d="M16.142 0.0174561C16.477 0.0174561 16.6444 0.186969 16.6444 0.519842V2.68909C16.6444 3.02197 16.4749 3.19112 16.142 3.19112H4.70319C4.26363 3.19112 3.94855 3.30604 3.76702 3.53347C3.58549 3.7609 3.49328 4.07602 3.49328 4.46967V5.24621C3.49328 6.09638 3.889 6.52477 4.68045 6.52477H13.2425C14.5666 6.52477 15.5635 6.86344 16.2334 7.54077C16.9033 8.21768 17.2378 9.19026 17.2378 10.4519V12.2783C17.2378 13.3878 16.9107 14.2875 16.2562 14.9723C15.6016 15.6575 14.5802 15.9999 13.1966 15.9999H0.547895C0.199723 15.9999 0.0227348 15.8324 0.0227348 15.4974V13.3286C0.0227348 12.9937 0.197656 12.8262 0.547895 12.8262H12.5346C12.9758 12.8262 13.2892 12.7112 13.4708 12.4838C13.6523 12.2564 13.7445 11.9434 13.7445 11.5477V10.6115C13.7445 9.75922 13.3471 9.3329 12.5573 9.3329H3.9953C2.67291 9.3329 1.67346 8.99343 1.00441 8.31694C0.335768 7.64044 0 6.6691 0 5.40584V3.73901C0 2.62792 0.327879 1.72894 0.981632 1.045C1.63539 0.361064 2.65593 0.0174561 4.04117 0.0174561H16.142ZM25.4901 0.0174561C25.8251 0.0174561 25.9926 0.186969 25.9926 0.519842V15.4974C25.9926 15.8307 25.823 15.9999 25.4901 15.9999H23.0244C22.6758 15.9999 22.4992 15.8324 22.4992 15.4974V0.519842C22.4992 0.184902 22.6742 0.0174561 23.0244 0.0174561H25.4901ZM49.4735 0.0174561C49.8084 0.0174561 49.9759 0.186969 49.9759 0.519842V2.75734C49.9759 3.10551 49.8064 3.2825 49.4735 3.2825H38.0347C37.4429 3.2825 36.9492 3.33294 36.5622 3.43094C36.1747 3.52894 35.8646 3.69846 35.6372 3.93333C35.4098 4.1682 35.2443 4.48578 35.1463 4.88068C35.0483 5.27558 34.9979 5.78048 34.9979 6.38751V9.67529C34.9979 10.2823 35.0475 10.7905 35.1463 11.1937C35.2452 11.5968 35.4098 11.9177 35.6372 12.1526C35.8646 12.3875 36.1739 12.5562 36.5622 12.655C36.95 12.7538 37.4409 12.8035 38.0347 12.8035H45.5692C45.9649 12.8035 46.2552 12.6997 46.4367 12.495C46.6187 12.2907 46.7109 11.9281 46.7109 11.4108C46.7109 11.0415 46.7129 10.6722 46.7129 10.303C46.7129 9.25639 46.7129 8.20942 46.7129 7.16284C46.7175 6.63231 47.0892 6.50163 47.3989 6.50163C48.0349 6.50204 48.6448 6.50163 49.268 6.50163C49.7245 6.50163 49.9532 6.73197 49.9532 7.18682V12.5066C49.9532 13.7835 49.7092 14.687 49.2221 15.2122C48.7354 15.7373 48.0332 15.9999 47.1219 15.9999H37.8978C36.7425 15.9999 35.7591 15.8932 34.9524 15.6802C34.1456 15.4673 33.4865 15.1199 32.9775 14.6415C32.4685 14.1631 32.0946 13.5379 31.8585 12.7692C31.6228 12.0004 31.5046 11.0684 31.5046 9.97217V6.04512C31.5046 4.94933 31.6237 4.01975 31.8585 3.25972C32.0938 2.4997 32.4685 1.87737 32.9775 1.39895C33.4865 0.920106 34.1469 0.568237 34.9524 0.348665C35.7583 0.129093 36.7408 0.0174561 37.8978 0.0174561H49.4735ZM107.996 0.0174561C108.331 0.0174561 108.498 0.184902 108.498 0.519842V9.62982C108.498 10.2385 108.548 10.7446 108.647 11.1482C108.745 11.5514 108.909 11.871 109.137 12.1071C109.366 12.3428 109.674 12.5103 110.062 12.6091C110.45 12.7084 110.941 12.758 111.535 12.758H120.782C121.117 12.758 121.284 12.9251 121.284 13.26V15.4974C121.284 15.8324 121.117 15.9999 120.782 15.9999H111.398C110.241 15.9999 109.259 15.8932 108.453 15.6802C107.646 15.4673 106.988 15.1207 106.478 14.6415C105.968 14.1618 105.595 13.5379 105.359 12.7692C105.123 12.0004 105.005 11.0684 105.005 9.97217V0.519842C105.005 0.184902 105.18 0.0174561 105.53 0.0174561H107.996Z" fill="white"/>
<path d="M139.381 0.0155029C141.132 0.0155029 142.387 0.411217 143.149 1.20308C143.91 1.99453 144.29 3.16642 144.29 4.71914V6.4087C144.29 7.961 143.91 9.1333 143.149 9.92475C142.387 10.7162 141.132 11.1119 139.381 11.1119H129.929V15.4955C129.929 15.8304 129.761 15.9979 129.426 15.9979H126.961C126.61 15.9979 126.436 15.8304 126.436 15.4955V0.700655C126.436 0.244144 126.664 0.0155029 127.121 0.0155029H139.381ZM129.929 8.09789H138.674C139.45 8.09789 139.998 7.93081 140.317 7.59587C140.637 7.26093 140.797 6.75108 140.797 6.0659V5.19838C140.797 4.51362 140.637 4.00334 140.317 3.66881C139.998 3.33387 139.45 3.16639 138.674 3.16639H130.226C130.028 3.16639 129.929 3.25777 129.929 3.44054V8.09789ZM157.063 0.0155029C157.642 0.0155029 158.129 0.133334 158.524 0.369446C158.92 0.605559 159.308 1.0658 159.689 1.75098L167.246 15.4728C167.322 15.6249 167.341 15.7507 167.303 15.8495C167.265 15.9483 167.155 15.9979 166.972 15.9979H164.072C163.814 15.9979 163.639 15.8991 163.547 15.701L161.926 12.756H151.195L149.62 15.701C149.513 15.8991 149.338 15.9979 149.095 15.9979H146.127C145.929 15.9979 145.811 15.9483 145.773 15.8495C145.735 15.7507 145.754 15.6249 145.83 15.4728L153.319 1.75098C153.699 1.0658 154.072 0.605559 154.437 0.369446C154.803 0.133334 155.229 0.0155029 155.716 0.0155029H157.063ZM152.634 10.1071H160.488L156.858 3.4174C156.797 3.31071 156.713 3.25777 156.607 3.25777H156.469C156.363 3.25777 156.279 3.31071 156.218 3.4174L152.634 10.1071ZM170.064 0.0155029C170.308 0.0155029 170.491 0.106883 170.612 0.289653L176.708 8.53163L182.85 0.289653C182.972 0.106883 183.155 0.0155029 183.398 0.0155029H186.389C186.511 0.0155029 186.595 0.0651172 186.64 0.163945C186.686 0.263187 186.671 0.365735 186.594 0.472419L178.398 11.1119V15.4955C178.398 15.8304 178.231 15.9979 177.896 15.9979H175.43C175.08 15.9979 174.905 15.8304 174.905 15.4955V11.1119L166.799 0.472419C166.723 0.365735 166.704 0.263187 166.742 0.163945C166.78 0.0651172 166.868 0.0155029 167.005 0.0155029H170.064Z" fill="#FF6600"/>
<path d="M65.53 0.369675C65.9254 0.605374 66.3165 1.06479 66.6944 1.75121L72.5993 12.4722L78.5038 1.75121C79.1501 0.577262 79.7613 0.0459173 81.1296 0.0157313C81.962 -0.00287653 83.2289 -0.0244079 82.3316 1.61928C79.7753 6.31589 77.2103 11.01 74.6454 15.7012C74.5407 15.8923 74.3786 15.9982 74.1202 15.9982C73.1063 15.9982 72.092 15.9982 71.0781 15.9982C70.8192 15.9982 70.6575 15.8923 70.5529 15.7012C68.3625 11.6956 66.1726 7.68709 63.9876 3.67773C61.8027 7.68709 59.6127 11.6956 57.4224 15.7012C57.3178 15.8923 57.1557 15.9982 56.8972 15.9982H53.9973C53.815 15.9982 53.7041 15.9486 53.6665 15.8497C53.6285 15.7509 53.6413 15.6219 53.7236 15.473L61.2808 1.75121C61.6588 1.06479 62.0495 0.605374 62.4453 0.369675C63.2747 -0.124052 64.7005 -0.122398 65.53 0.369675Z" fill="white"/>
<path d="M83.3438 16C82.3537 16 81.3634 16 80.3733 16C80.1752 16 80.0572 15.9505 80.0191 15.8515C79.9809 15.7525 80 15.6268 80.0762 15.4745C80.4903 14.7159 80.9042 13.9572 81.3183 13.1987C82.02 11.8738 82.1807 12.1296 82.87 13.3269C83.15 13.8413 83.4303 14.3558 83.7103 14.87C83.9479 15.3065 84.1932 16 83.3438 16Z" fill="white"/>
<path d="M91.3183 0.0040066C91.8968 0.0168321 92.3849 0.122215 92.7808 0.358205C93.1767 0.594159 93.568 1.05392 93.9462 1.74065C96.2666 5.95384 98.5997 10.2453 100.856 14.3904C101.754 16.0354 100.486 16.0135 99.6527 15.995C99.0742 15.9822 98.5862 15.8768 98.1902 15.6408C97.7944 15.4049 97.4008 14.9462 97.0249 14.2584C94.7229 10.0462 92.4121 5.82868 90.1154 1.60862C89.2172 -0.0363938 90.4852 -0.0144835 91.3183 0.0040066Z" fill="white"/>
<path d="M86.2752 6.4398C86.8537 6.45262 87.3418 6.55801 87.7377 6.794C88.1336 7.02995 88.5272 7.48857 88.9031 8.17644C90.0534 10.2812 91.121 12.3062 92.2554 14.3907C93.1537 16.0357 91.8856 16.0138 91.0525 15.9953C90.474 15.9825 89.986 15.8771 89.59 15.6411C89.1942 15.4051 88.8005 14.9465 88.4247 14.2586C87.2949 12.1914 86.1987 10.114 85.0723 8.04441C84.1741 6.3994 85.4421 6.42131 86.2752 6.4398Z" fill="white"/>
</svg>
