<svg width="67" height="26" viewBox="0 0 67 26" fill="none" xmlns="http://www.w3.org/2000/svg">
<g opacity="0.86">
<path d="M45.6047 14.5155L46.2726 14.7159C46.228 14.9051 46.1613 15.0609 46.0611 15.1834C45.9609 15.3058 45.8496 15.406 45.7049 15.4616C45.5602 15.5284 45.3821 15.5618 45.1594 15.5618C44.8923 15.5618 44.6808 15.5284 44.5027 15.4505C44.3357 15.3726 44.191 15.239 44.0686 15.0387C43.9461 14.8494 43.8793 14.5934 43.8793 14.2929C43.8793 13.8921 43.9907 13.5805 44.2022 13.3578C44.4136 13.1352 44.7253 13.035 45.1149 13.035C45.4266 13.035 45.6603 13.1018 45.8384 13.2243C46.0165 13.3467 46.1501 13.5359 46.228 13.8031L45.5602 13.9478C45.5379 13.8699 45.5156 13.8142 45.4822 13.7808C45.4377 13.7252 45.3932 13.6806 45.3264 13.6473C45.2596 13.6139 45.1928 13.6027 45.126 13.6027C44.9591 13.6027 44.8255 13.6695 44.7365 13.8142C44.6697 13.9144 44.6363 14.0814 44.6363 14.2929C44.6363 14.56 44.6808 14.7492 44.7587 14.8494C44.8366 14.9496 44.9591 15.0053 45.1038 15.0053C45.2485 15.0053 45.3598 14.9607 45.4266 14.8828C45.5156 14.7826 45.5713 14.6713 45.6047 14.5155Z" fill="#18191A"/>
<path d="M46.5397 14.2925C46.5397 13.8917 46.651 13.5801 46.8736 13.3574C47.0963 13.1348 47.4079 13.0235 47.8087 13.0235C48.2205 13.0235 48.5322 13.1348 48.7548 13.3463C48.9775 13.5689 49.0888 13.8695 49.0888 14.2702C49.0888 14.5596 49.0442 14.7934 48.9441 14.9715C48.8439 15.1496 48.7103 15.2943 48.5211 15.3945C48.343 15.4946 48.1092 15.5503 47.8421 15.5503C47.5638 15.5503 47.3412 15.5058 47.1519 15.4167C46.9738 15.3277 46.8291 15.1941 46.7067 14.9937C46.5842 14.7934 46.5397 14.5819 46.5397 14.2925ZM47.2966 14.2925C47.2966 14.5373 47.3412 14.7154 47.4302 14.8268C47.5193 14.9381 47.6417 14.9937 47.8087 14.9937C47.9756 14.9937 48.0981 14.9381 48.1871 14.8379C48.2762 14.7266 48.3207 14.5373 48.3207 14.2702C48.3207 14.0364 48.2762 13.8695 48.176 13.7693C48.087 13.658 47.9534 13.6135 47.7975 13.6135C47.6417 13.6135 47.5193 13.6691 47.4302 13.7804C47.3412 13.8695 47.2966 14.0476 47.2966 14.2925Z" fill="#18191A"/>
<path d="M49.4784 13.0681H50.4691L50.8475 14.5596L51.226 13.0681H52.2167V15.5169H51.5933V13.6469L51.1147 15.5169H50.5581L50.0795 13.6469V15.5169H49.4561V13.0681H49.4784Z" fill="#18191A"/>
<path d="M52.7064 13.0681H53.9643C54.2425 13.0681 54.4429 13.1348 54.5765 13.2684C54.71 13.402 54.7768 13.5801 54.7768 13.825C54.7768 14.0699 54.6989 14.2702 54.5542 14.4038C54.4095 14.5485 54.1757 14.6153 53.8752 14.6153H53.4633V15.5281H52.7064V13.0681ZM53.4633 14.1144H53.6526C53.7973 14.1144 53.8975 14.0921 53.9643 14.0365C54.0199 13.9808 54.0533 13.9252 54.0533 13.8472C54.0533 13.7693 54.031 13.7025 53.9754 13.6469C53.9197 13.5912 53.8307 13.569 53.686 13.569H53.4745V14.1144H53.4633Z" fill="#18191A"/>
<path d="M55.1776 13.0681H55.9345V14.9158H57.1144V15.5169H55.1776V13.0681Z" fill="#18191A"/>
<path d="M57.4929 13.0681H58.2498V15.5169H57.4929V13.0681Z" fill="#18191A"/>
<path d="M60.2979 15.105H59.4408L59.3184 15.5058H58.5503L59.4742 13.0569H60.2979L61.2218 15.5058H60.4315L60.2979 15.105ZM60.1421 14.5819L59.8749 13.7025L59.6078 14.5819H60.1421Z" fill="#18191A"/>
<path d="M61.4556 13.0681H62.1569L63.0808 14.4261V13.0681H63.7932V15.5169H63.0808L62.168 14.17V15.5169H61.4556V13.0681Z" fill="#18191A"/>
<path d="M64.1271 13.0681H66.4312V13.6691H65.6632V15.5169H64.9063V13.6691H64.1382V13.0681H64.1271Z" fill="#18191A"/>
<path d="M36.4993 16.797L38.6922 16.1069L37.9798 14.5263C37.4566 15.183 36.9335 16.029 36.4993 16.797ZM35.7535 9.57287L31.4569 0L0 1.781L8.71576 25.5573L25.4905 20.27C24.4219 18.7339 24.0324 16.9084 25.2679 16.0179C26.6482 15.016 28.7297 16.1737 30.0544 17.81C31.3344 15.6728 34.9298 10.6971 35.7535 9.57287Z" fill="#18191A"/>
<path d="M30.4769 6.91804C31.7903 6.91804 32.8589 5.91623 32.8589 4.66953C32.8589 3.42283 31.7903 2.42102 30.4769 2.42102C29.1634 2.42102 28.0948 3.42283 28.0948 4.66953C28.0948 5.9051 29.1634 6.91804 30.4769 6.91804ZM28.5289 7.88646H32.4248V18.0715H28.5289V7.88646Z" fill="#FEFEFE"/>
<path d="M26.6032 10.8585C26.6366 10.8696 26.6588 10.8585 26.6588 10.8251V8.24265C26.6588 8.20926 26.6366 8.17587 26.6032 8.1536C26.6032 8.1536 26.0912 7.81967 24.5328 7.73062C24.4549 7.68609 23.0857 7.67496 22.7184 7.73062C17.0415 8.187 16.83 12.2944 16.83 12.4725V13.4743C16.83 13.5968 16.83 17.7933 22.7184 18.1606C23.2972 18.2051 24.4215 18.1606 24.5328 18.1606C25.8908 18.1606 26.8258 17.7487 26.8258 17.7487C26.8592 17.7376 26.8815 17.7042 26.8815 17.6708V15.2553C26.8815 15.2219 26.8592 15.2108 26.8369 15.2331C26.8369 15.2331 26.414 15.567 24.5662 15.7562C24.043 15.8119 23.787 15.7896 23.5978 15.7562C20.9708 15.311 20.8483 13.3964 20.8483 13.3964C20.8483 13.363 20.8372 13.3074 20.8372 13.2851V12.5504C20.8372 12.5171 20.8372 12.4614 20.8483 12.4391C20.8483 12.4391 21.0264 10.3799 23.5978 10.1572H24.5662C25.6904 10.3019 26.6032 10.8585 26.6032 10.8585Z" fill="#FEFEFE"/>
<path d="M6.0104 18.0382C6.0104 18.0716 6.03266 18.0939 6.06605 18.0939H9.8618C9.8952 18.0939 9.91746 18.0716 9.91746 18.0382V15.0773C9.91746 15.0439 9.93972 15.0216 9.97312 15.0216C9.97312 15.0216 16.0396 15.4557 16.0396 11.3928C16.0396 8.17592 12.2328 7.83085 10.9861 7.88651C10.9638 7.88651 6.06605 7.88651 6.06605 7.88651C6.03266 7.88651 6.0104 7.90877 6.0104 7.94216V18.0382ZM9.85067 12.762V10.1016H10.7857C10.7857 10.1016 12.1326 10.1573 12.2439 11.0812C12.2662 11.148 12.2662 11.6043 12.2439 11.6266C12.0658 12.7063 10.897 12.762 10.897 12.762H9.85067Z" fill="#FEFEFE"/>
<path d="M30.5887 22.986C30.9003 22.986 31.1452 22.986 31.5459 22.8079C32.9262 22.0844 37.5902 10.6971 42.5102 7.19078C42.5436 7.16851 42.577 7.13512 42.5993 7.10173C42.6327 7.0572 42.6327 7.01268 42.6327 7.01268C42.6327 7.01268 42.6327 6.77892 41.9091 6.77892C37.5345 6.65648 32.9819 15.8398 30.5887 19.4685C30.5553 19.5131 30.3994 19.4685 30.3994 19.4685C30.3994 19.4685 28.7965 17.5762 27.4051 16.8527C27.3717 16.8416 27.2159 16.7859 27.0489 16.797C26.9376 16.797 26.292 16.9306 25.9914 17.2423C25.6352 17.6208 25.6464 17.8322 25.6464 18.2886C25.6464 18.322 25.6686 18.4779 25.7132 18.5558C26.0582 19.1569 27.6055 21.2941 28.8856 22.474C29.0748 22.6187 29.3753 22.986 30.5887 22.986Z" fill="#5B5C5C"/>
<path d="M43.8014 3.75122H47.4413C48.1649 3.75122 48.7437 3.8514 49.1778 4.04063C49.6231 4.241 49.9904 4.51928 50.2687 4.87548C50.5581 5.24281 50.7696 5.66579 50.892 6.14444C51.0256 6.62308 51.0924 7.13512 51.0924 7.68055C51.0924 8.52652 50.9922 9.18327 50.803 9.65078C50.6138 10.1183 50.3466 10.5079 50.0015 10.8307C49.6565 11.1424 49.2891 11.3539 48.8995 11.4652C48.3652 11.6099 47.8755 11.6767 47.4413 11.6767H43.8014V3.75122ZM46.2503 5.54335V9.8734H46.8514C47.3634 9.8734 47.7308 9.81775 47.9423 9.70643C48.1537 9.59512 48.3318 9.39476 48.4543 9.11648C48.5767 8.8382 48.6435 8.37068 48.6435 7.7362C48.6435 6.89023 48.5099 6.32254 48.2317 6.01086C47.9534 5.69919 47.5081 5.54335 46.8625 5.54335H46.2503Z" fill="#18191A"/>
<path d="M51.7714 9.06088L54.109 8.91617C54.1646 9.29463 54.2648 9.58405 54.4206 9.78441C54.6767 10.1072 55.0329 10.2631 55.5004 10.2631C55.8454 10.2631 56.1237 10.1851 56.313 10.0182C56.5022 9.85119 56.6024 9.66196 56.6024 9.45047C56.6024 9.25011 56.5133 9.06088 56.3352 8.89391C56.1571 8.72694 55.7341 8.58223 55.0774 8.43753C53.9977 8.19264 53.2407 7.86983 52.7732 7.46911C52.3057 7.06838 52.0831 6.55635 52.0831 5.933C52.0831 5.52114 52.2055 5.14268 52.4393 4.77535C52.673 4.40802 53.0292 4.12974 53.5079 3.91824C53.9865 3.70675 54.6321 3.60657 55.4558 3.60657C56.4688 3.60657 57.248 3.7958 57.7711 4.17426C58.3054 4.55272 58.6171 5.15381 58.7173 5.97752L56.402 6.1111C56.3352 5.7549 56.2128 5.49888 56.0124 5.33191C55.812 5.16494 55.5449 5.08702 55.1998 5.08702C54.9104 5.08702 54.6989 5.14268 54.5542 5.26512C54.4095 5.38757 54.3427 5.53227 54.3427 5.71037C54.3427 5.83282 54.3984 5.95526 54.5208 6.05544C54.6321 6.15562 54.9104 6.2558 55.3445 6.34485C56.4131 6.57861 57.1812 6.81237 57.6487 7.04612C58.1162 7.27988 58.4502 7.58042 58.6616 7.92549C58.8731 8.27056 58.9733 8.67128 58.9733 9.1054C58.9733 9.61744 58.8286 10.085 58.5503 10.5079C58.2721 10.9421 57.8713 11.2649 57.3704 11.4875C56.8695 11.7101 56.2239 11.8214 55.4558 11.8214C54.109 11.8214 53.1739 11.5654 52.6508 11.0422C52.1387 10.5191 51.8493 9.86233 51.7714 9.06088Z" fill="#18191A"/>
<path d="M59.5967 9.06088L61.9342 8.91617C61.9899 9.29463 62.0901 9.58405 62.2459 9.78441C62.5019 10.1072 62.8581 10.2631 63.3256 10.2631C63.6707 10.2631 63.949 10.1851 64.1382 10.0182C64.3274 9.85119 64.4276 9.66196 64.4276 9.45047C64.4276 9.25011 64.3386 9.06088 64.1605 8.89391C63.9824 8.72694 63.5594 8.58223 62.9026 8.43753C61.8229 8.19264 61.066 7.86983 60.5985 7.46911C60.1421 7.06838 59.9083 6.55635 59.9083 5.933C59.9083 5.52114 60.0308 5.14268 60.2645 4.77535C60.4983 4.40802 60.8545 4.12974 61.3331 3.91824C61.8118 3.70675 62.4574 3.60657 63.2811 3.60657C64.294 3.60657 65.0732 3.7958 65.5964 4.17426C66.1307 4.55272 66.4424 5.15381 66.5426 5.97752L64.2273 6.1111C64.1605 5.7549 64.038 5.49888 63.8377 5.33191C63.6373 5.16494 63.3702 5.08702 63.0251 5.08702C62.7357 5.08702 62.5242 5.14268 62.3795 5.26512C62.2348 5.38757 62.168 5.53227 62.168 5.71037C62.168 5.83282 62.2236 5.95526 62.3461 6.05544C62.4574 6.15562 62.7357 6.2558 63.1698 6.34485C64.2384 6.57861 65.0064 6.81237 65.474 7.04612C65.9415 7.27988 66.2754 7.58042 66.4869 7.92549C66.6984 8.27056 66.7986 8.67128 66.7986 9.1054C66.7986 9.61744 66.6539 10.085 66.3756 10.5079C66.0973 10.9421 65.6966 11.2649 65.1957 11.4875C64.6948 11.7101 64.0492 11.8214 63.2811 11.8214C61.9342 11.8214 60.9992 11.5654 60.476 11.0422C59.9529 10.5191 59.6635 9.86233 59.5967 9.06088Z" fill="#18191A"/>
</g>
</svg>
