<svg width="22" height="21" viewBox="0 0 22 21" fill="none" xmlns="http://www.w3.org/2000/svg">
<path d="M13.7144 20C13.2147 20 12.8096 19.5949 12.8096 19.0952C12.8096 18.5955 13.2147 18.1904 13.7144 18.1904C14.2141 18.1904 14.6191 18.5955 14.6191 19.0952C14.6191 19.5949 14.2141 20 13.7144 20Z" stroke="#5C5C5C" stroke-linecap="round" stroke-linejoin="round"/>
<path d="M3.76321 20C3.26352 20 2.85844 19.5949 2.85844 19.0952C2.85844 18.5955 3.26352 18.1904 3.76321 18.1904C4.26289 18.1904 4.66797 18.5955 4.66797 19.0952C4.66797 19.5949 4.26289 20 3.76321 20Z" stroke="#5C5C5C" stroke-linecap="round" stroke-linejoin="round"/>
<path d="M20.9531 1H17.3341L14.9093 13.1148C14.8266 13.5313 14.6 13.9055 14.2692 14.1718C13.9383 14.4381 13.5244 14.5796 13.0998 14.5714H4.30551C3.8809 14.5796 3.46696 14.4381 3.13614 14.1718C2.80533 13.9055 2.57872 13.5313 2.49598 13.1148L1.04836 5.52381H16.4293" stroke="#5C5C5C" stroke-linecap="round" stroke-linejoin="round"/>
</svg>
