<svg width="48" height="26" viewBox="0 0 48 26" fill="none" xmlns="http://www.w3.org/2000/svg">
<g opacity="0.86">
<path d="M25.2866 12.9755L26.3749 11.6709C27.0596 12.3049 27.9523 12.6585 28.8816 12.695C29.6397 12.695 30.0921 12.3902 30.0921 11.9025V11.8782C30.0921 11.4149 29.8109 11.171 28.4047 10.8174C26.705 10.3907 25.6168 9.91523 25.6168 8.25709V8.23271C25.6168 6.70869 26.8395 5.70894 28.5636 5.70894C29.7008 5.68455 30.8013 6.06251 31.6817 6.76965L30.7157 8.15956C30.0921 7.67187 29.3218 7.37926 28.527 7.33049C27.8178 7.33049 27.4509 7.65968 27.4509 8.06202V8.0864C27.4509 8.63505 27.8055 8.81793 29.2606 9.1837C30.9602 9.62261 31.9262 10.2322 31.9262 11.6953V11.7197C31.9262 13.39 30.6546 14.3166 28.8449 14.3166C27.5487 14.3166 26.2771 13.8411 25.2866 12.9755Z" fill="#18191A"/>
<path d="M32.8555 12.9755L33.9438 11.6709C34.6285 12.3049 35.5211 12.6585 36.4504 12.695C37.2085 12.695 37.661 12.3902 37.661 11.9025V11.8782C37.661 11.4149 37.3797 11.171 35.9736 10.8174C34.2739 10.3907 33.1857 9.91523 33.1857 8.25709V8.23271C33.1857 6.70869 34.4084 5.70894 36.1325 5.70894C37.2697 5.68455 38.3702 6.06251 39.2506 6.76965L38.2846 8.15956C37.661 7.67187 36.8906 7.37926 36.0958 7.33049C35.3866 7.33049 35.0198 7.65968 35.0198 8.06202V8.0864C35.0198 8.63505 35.3744 8.81793 36.8295 9.1837C38.5291 9.62261 39.4951 10.2322 39.4951 11.6953V11.7197C39.4951 13.39 38.2234 14.3166 36.4138 14.3166C35.1054 14.3166 33.846 13.8411 32.8555 12.9755Z" fill="#18191A"/>
<path d="M41.1214 5.80646H42.9677V12.5121H47.1618V14.1947H41.1214V5.80646Z" fill="#18191A"/>
<path d="M25.0666 18.4376L25.4823 17.9377C25.7513 18.1816 26.0937 18.3157 26.4483 18.3279C26.7417 18.3279 26.9129 18.2181 26.9129 18.0231V18.0109C26.9129 17.828 26.8029 17.7426 26.2649 17.5963C25.6168 17.4256 25.1888 17.255 25.1888 16.6088V16.5966C25.2011 16.0357 25.6657 15.5968 26.2282 15.6212C26.2526 15.6212 26.2893 15.6212 26.3138 15.6334C26.754 15.6212 27.1697 15.7675 27.5121 16.0479L27.1452 16.5844C26.9007 16.4015 26.6072 16.2796 26.3015 16.2674C26.0325 16.2674 25.8858 16.3893 25.8858 16.5478V16.56C25.8858 16.7673 26.0203 16.8404 26.5828 16.9867C27.2431 17.1574 27.6099 17.3891 27.6099 17.9499V17.9621C27.6099 18.6083 27.1208 18.9619 26.4238 18.9619C25.9347 18.9497 25.4456 18.7668 25.0666 18.4376Z" fill="#18191A"/>
<path d="M28.2457 15.6821H30.679V16.3161H28.9427V16.9744H30.4711V17.6084H28.9427V18.2912H30.7035V18.9252H28.2457V15.6821Z" fill="#18191A"/>
<path d="M31.2048 17.3037C31.1926 16.3893 31.914 15.6456 32.8188 15.6212C32.8433 15.6212 32.8678 15.6212 32.8922 15.6212C33.3691 15.5968 33.8337 15.7797 34.1639 16.1211L33.7114 16.6453C33.4914 16.4259 33.1979 16.2917 32.88 16.2796C32.3542 16.2917 31.9262 16.7307 31.9384 17.2549C31.9384 17.2671 31.9384 17.2793 31.9384 17.2793V17.2915C31.9018 17.8158 32.3175 18.2669 32.8433 18.3035C32.8555 18.3035 32.8677 18.3035 32.88 18.3035C33.1979 18.3035 33.5158 18.1693 33.7359 17.9255L34.1883 18.3766C33.8582 18.7668 33.3691 18.974 32.8678 18.9496C31.9629 18.9618 31.2292 18.2425 31.2048 17.3525C31.2048 17.3403 31.2048 17.3281 31.2048 17.3037Z" fill="#18191A"/>
<path d="M34.7019 17.5231V15.6821H35.4111V17.4987C35.4111 18.023 35.6801 18.2912 36.1081 18.2912C36.536 18.2912 36.805 18.023 36.805 17.5231V15.6821H37.5142V17.4987C37.5998 18.2058 37.0985 18.8642 36.3893 18.9496C36.2915 18.9618 36.1936 18.9618 36.0958 18.9496C35.3866 19.0227 34.763 18.5106 34.6897 17.8035C34.6897 17.7182 34.6897 17.6206 34.7019 17.5231Z" fill="#18191A"/>
<path d="M38.2479 15.6821H39.7274C40.0698 15.6578 40.4122 15.7797 40.6689 16.0113C40.8524 16.2064 40.9624 16.4746 40.9502 16.7429V16.7551C40.9746 17.2062 40.6934 17.6207 40.2532 17.7548L41.048 18.9009H40.2165L39.5196 17.8645H38.9571V18.9009H38.2479V15.6821ZM39.6785 17.2549C40.0209 17.2549 40.2288 17.0721 40.2288 16.8038V16.7916C40.2288 16.4868 40.0209 16.3283 39.6663 16.3283H38.9571V17.2549H39.6785Z" fill="#18191A"/>
<path d="M41.5982 15.6821H44.0315V16.3161H42.2952V16.9744H43.8237V17.6084H42.2952V18.2912H44.056V18.9252H41.5982V15.6821Z" fill="#18191A"/>
<path d="M44.6918 15.6821H45.9513C46.8439 15.6212 47.602 16.2917 47.6631 17.1818C47.6631 17.2183 47.6631 17.2549 47.6631 17.2915V17.3037C47.6631 18.1937 46.9417 18.913 46.0491 18.9252C46.0124 18.9252 45.9757 18.9252 45.9513 18.9252H44.6918V15.6821ZM45.9513 18.2669C46.4648 18.2913 46.8928 17.9133 46.9295 17.4012C46.9295 17.3646 46.9295 17.3403 46.9295 17.3037V17.2915C46.9539 16.7794 46.5626 16.3405 46.0491 16.3161C46.0124 16.3161 45.9879 16.3161 45.9513 16.3161H45.401V18.2547L45.9513 18.2669Z" fill="#18191A"/>
<path d="M0.0122283 13.1584C0.0122283 20.5346 7.2265 24.2776 10.3201 25.5456L10.4301 25.5944C10.6625 25.7041 10.9315 25.7041 11.1516 25.5944L11.2616 25.5456C14.3674 24.2776 21.5695 20.5346 21.5695 13.1584V3.28273C21.5695 2.90478 21.3127 2.57559 20.9459 2.49024L10.9804 0.0274323C10.8459 -0.00914411 10.7114 -0.00914411 10.5891 0.0274323L0.623607 2.49024C0.25678 2.57559 0 2.90478 0 3.28273M19.9432 13.1584C19.9432 19.4373 13.6704 22.778 10.8092 23.9728C7.9357 22.778 1.67518 19.4373 1.67518 13.1584V3.91672L10.8092 1.66118L19.9432 3.91672V13.1584Z" fill="#18191A"/>
<path d="M10.7725 4.95306C8.93836 4.95306 7.4466 6.4405 7.4466 8.26933V9.0862C6.79853 9.19593 6.33389 9.74458 6.33389 10.3908V16.1942C6.33389 16.9257 6.93304 17.5232 7.66669 17.5232H13.9639C14.6976 17.5232 15.2967 16.9257 15.2967 16.1942V10.3908C15.2967 9.72019 14.7831 9.15935 14.1229 9.07401V8.25713C14.0862 6.42831 12.6066 4.95306 10.7725 4.95306ZM10.7725 6.39174C11.8118 6.39174 12.6555 7.23299 12.6555 8.26933V9.06181H8.90168V8.26933C8.88945 7.23299 9.73316 6.39174 10.7725 6.39174ZM13.8294 16.0723H7.77674V10.5127H13.8294V16.0723ZM11.9463 11.4881L12.949 12.4878L11.4328 13.9996L10.4301 14.9994L9.42747 13.9996L8.65713 13.2315L9.65979 12.2318L10.4301 12.9999L11.9463 11.4881Z" fill="#18191A"/>
</g>
</svg>
